<svg width="132" height="132" viewBox="0 0 132 132" fill="none" xmlns="http://www.w3.org/2000/svg">
<path d="M1.66078 117.893C19.5578 116.776 35.391 107.246 49.111 96.343C56.4527 90.5084 63.2603 84.0152 69.8386 77.3452C77.5144 69.5646 84.9543 61.7447 90.766 52.4341C91.3032 51.5758 89.9339 50.7961 89.3966 51.6544C83.8339 60.5653 76.7576 68.0085 69.4586 75.4844C63.4798 81.6073 57.2717 87.5075 50.713 93.0113C36.8324 104.658 20.2032 115.161 1.66078 116.32C0.655032 116.383 0.645204 117.958 1.66078 117.893Z" fill="white"/>
<path d="M90.2807 51.6867C91.4765 47.3787 90.4314 42.9856 91.1161 38.6186C91.922 33.4752 93.6944 28.8527 96.4823 24.4464C102.504 14.9328 112.545 7.9253 124.001 8.34136C125.017 8.38067 125.013 6.80489 124.001 6.76886C112.957 6.3659 104.158 12.2038 97.357 20.5708C93.9826 24.7183 91.5977 29.5669 90.2381 34.7201C88.7901 40.2042 90.2578 45.898 88.7639 51.2838C88.4953 52.26 90.0153 52.6597 90.284 51.6835L90.2807 51.6867Z" fill="white"/>
<path d="M123.238 7.91198C120.224 17.0718 117.662 25.7009 111.319 33.2031C104.938 40.7511 96.4494 45.7012 89.5206 52.5973C88.8031 53.3147 89.9137 54.4253 90.6312 53.7078C94.3397 50.019 98.6509 47.0837 102.684 43.765C106.956 40.2531 110.808 36.3284 114.314 32.0564C119.912 25.2324 122.058 16.5083 124.758 8.3051C125.072 7.34194 123.555 6.94554 123.238 7.90542L123.238 7.91198Z" fill="white"/>
<path d="M49.6937 95.7662C58.0836 88.4508 63.9052 78.6193 65.2254 67.4579C66.8471 53.7476 61.9363 41.3871 58.0312 28.486C57.8478 27.8832 57.1729 27.7456 56.7143 28.1322C48.3865 35.0709 45.2055 45.8523 46.28 56.4077C46.7518 61.0532 48.1605 65.7052 50.9484 69.4759C53.4874 72.9059 58.2769 76.503 59.0108 80.8798C59.1811 81.8823 60.6979 81.4728 60.5309 80.4801C60.01 77.3712 57.3433 74.7372 55.3875 72.4211C51.9738 68.3784 49.6347 64.8141 48.3931 59.5888C45.8083 48.709 49.1564 36.4697 57.8248 29.2428C57.3858 29.1248 56.9469 29.0069 56.5111 28.8857C60.1574 40.9317 64.8061 52.5387 63.8757 65.3481C63.0403 76.8896 57.2024 87.1305 48.5831 94.649C47.8165 95.3174 48.9369 96.4247 49.6937 95.7596L49.6937 95.7662Z" fill="white"/>
<path d="M50.1625 95.4811C54.8669 92.4213 59.5058 89.2894 64.6099 86.9241C69.7238 84.5555 75.2537 83.3237 80.5478 81.4432C81.4979 81.1025 81.1047 79.5825 80.1481 79.9232C75.1391 81.7021 69.9727 82.9699 65.0587 85.0076C59.4566 87.327 54.441 90.8291 49.3861 94.115C48.5343 94.6654 49.314 96.0348 50.1625 95.4811Z" fill="white"/>
<path d="M80.348 81.2367C93.8093 94.6193 118.74 80.7223 127.186 67.723C127.736 66.8712 126.367 66.0981 125.816 66.9433C117.931 79.081 94.0943 92.6832 81.4553 80.1228C80.7379 79.4054 79.624 80.5192 80.3447 81.2334L80.348 81.2367Z" fill="white"/>
<path d="M25.851 110.711C38.4933 96.955 29.2942 78.7533 23.5545 64.0766C23.1876 63.1396 21.6675 63.5328 22.0344 64.4763C27.512 78.4715 36.8848 96.3882 24.7437 109.597C24.059 110.341 25.1696 111.458 25.8543 110.708L25.851 110.711Z" fill="white"/>
<path d="M21.9591 63.4445C8.97936 73.3906 11.1972 100.788 25.186 108.893C26.0639 109.404 26.8436 108.035 25.9624 107.527C12.7861 99.8938 10.9319 73.8558 23.0696 64.5551C23.8723 63.9425 22.7519 62.8352 21.9591 63.4445Z" fill="white"/>
<path d="M12.504 116.504C23.6131 117.784 34.6665 114.155 44.9533 110.361C45.8968 110.014 45.5037 108.487 44.5536 108.841C34.3782 112.595 23.4853 116.202 12.5008 114.934C11.4917 114.816 11.5016 116.392 12.5008 116.507L12.504 116.504Z" fill="white"/>
<path d="M44.4785 109.879C49.4941 104.759 53.9299 99.0453 61.0782 96.9028C66.3527 95.3237 72.2135 96.6177 77.5666 97.0436C78.5789 97.1255 78.569 95.5497 77.5666 95.4711C71.5059 94.9928 65.5402 93.9281 59.5876 95.7135C52.7407 97.7643 48.151 103.887 43.3679 108.775C42.657 109.499 43.7709 110.613 44.4785 109.886L44.4785 109.879Z" fill="white"/>
<path d="M43.5351 110.004C56.5017 117.755 69.9335 105.522 78.6805 96.8078C79.398 96.0903 78.2874 94.9797 77.5699 95.6972C69.3667 103.874 56.5705 115.963 44.3148 108.641C43.4466 108.12 42.6669 109.489 43.5384 110.007L43.5351 110.004Z" fill="white"/>
<path d="M81.0426 81.0992C86.8019 73.7215 92.2991 66.4945 101.662 63.7623C110.245 61.2594 118.16 64.7189 126.023 67.8181C126.963 68.1883 127.353 66.6649 126.422 66.298C118.016 62.9826 110.357 59.9883 101.262 62.2422C91.6406 64.6305 85.711 72.5782 79.9255 79.9886C79.3096 80.7748 80.4136 81.8985 81.0361 81.0992L81.0426 81.0992Z" fill="white"/>
<path d="M123.805 7.48958C116.879 12.135 111.451 18.5004 106.462 25.1082C103.385 29.1868 100.519 33.3966 97.767 37.7013C96.3976 39.8438 95.0774 42.0224 93.7669 44.1977C92.2796 46.6613 91.6506 49.5049 89.7997 51.7621C89.4819 52.1519 90.0323 52.7089 90.3566 52.319C92.5286 49.6687 93.4721 46.2157 95.2379 43.2837C97.8718 38.9134 100.63 34.6218 103.539 30.4285C109.266 22.1728 115.766 13.8189 124.195 8.16773C124.614 7.88599 124.224 7.20129 123.805 7.48303L123.805 7.48958Z" fill="white"/>
<path d="M57.026 29.2819C55.4961 33.2951 55.3421 37.7276 54.4707 41.9209C53.6812 45.7309 53.288 49.2232 54.225 53.0365C56.492 62.2619 62.3889 69.954 59.2504 79.887C59.0965 80.3686 59.8598 80.5684 60.0105 80.0836C62.5265 72.1293 59.4929 64.9024 56.5772 57.5444C54.6705 52.7286 54.0251 48.4664 54.985 43.3329C55.8368 38.7792 56.1382 33.8127 57.7893 29.4817C57.9695 29.0067 57.2062 28.8134 57.026 29.2819Z" fill="white"/>
<path d="M80.7251 80.7814C95.3461 78.5176 113.718 77.9476 125.528 67.7493C125.912 67.4184 125.351 66.8647 124.971 67.1923C113.312 77.2596 94.9759 77.7805 80.5253 80.018C80.0241 80.0934 80.2304 80.8567 80.7219 80.7781L80.7251 80.7814Z" fill="white"/>
<path d="M125.806 66.8026C117.953 67.4414 110.081 67.8705 102.372 69.5774C94.2838 71.3694 87.2043 75.4153 80.7669 80.5423C80.3705 80.8601 80.9307 81.4072 81.3238 81.0992C87.7154 76.0115 94.6115 72.267 102.572 70.3407C110.156 68.5028 118.065 68.2211 125.809 67.5921C126.314 67.5528 126.317 66.7632 125.809 66.8058L125.806 66.8026Z" fill="white"/>
<path d="M22.1228 64.8337C21.5954 72.5553 20.3537 80.467 21.2514 88.1985C22.0573 95.1175 26.0606 101.342 26.8501 108.205C26.9091 108.703 27.6954 108.71 27.6364 108.205C26.8927 101.774 23.5479 95.7104 22.2309 89.3549C20.606 81.4989 22.3718 72.7355 22.9091 64.8337C22.9451 64.3259 22.1556 64.3292 22.1228 64.8337Z" fill="white"/>
<path d="M45.3137 109.319C47.3612 107.147 50.0672 106.256 52.7602 105.155C56.1672 103.759 59.3286 102 62.929 101.08C68.0593 99.7692 73.1535 99.2614 77.8973 96.7323C78.3461 96.4931 77.953 95.8117 77.5074 96.0476C71.5941 99.1959 64.9012 99.245 58.7357 101.597C55.8036 102.714 53.0321 104.221 50.1164 105.381C48.0361 106.21 46.2932 107.134 44.7535 108.765C44.4062 109.132 44.9599 109.692 45.3104 109.322L45.3137 109.319Z" fill="white"/>
<path d="M22.0967 64.1394C17.0844 70.4032 16.3243 77.6694 16.6618 85.4435C16.8321 89.3092 17.1892 93.2896 19.0402 96.7459C19.9608 98.4592 21.4743 100.025 22.5849 101.594C24.0525 103.665 24.9403 106.073 26.1984 108.268C26.4506 108.71 27.1353 108.32 26.883 107.878C25.3892 105.277 24.3212 102.492 22.4735 100.094C19.1352 95.7598 17.9165 92.1692 17.5135 86.7277C16.9304 78.8586 17.5463 71.0682 22.6471 64.6963C22.9616 64.3032 22.408 63.743 22.0902 64.1394L22.0967 64.1394Z" fill="white"/>
<path d="M124.178 7.6401C115.601 10.1102 108.568 15.2831 103.185 22.3758C96.728 30.8837 94.1071 41.9305 90.1038 51.6669C89.9171 52.1288 90.5952 52.5252 90.7885 52.0567C94.1792 43.8044 96.6985 35.1327 100.977 27.2767C105.953 18.1398 114.402 11.2765 124.378 8.40342C124.866 8.26255 124.663 7.50251 124.181 7.64338L124.178 7.6401Z" fill="white"/>
<path d="M91.1622 52.0503C93.6454 47.8701 97.2065 44.7349 100.368 41.1083C103.624 37.3671 106.53 33.295 109.6 29.3997C112.06 26.2777 114.435 23.1032 116.627 19.7846C118.982 16.2169 122.036 12.5674 123.788 8.67219C123.995 8.21682 123.31 7.82043 123.104 8.28235C121.554 11.732 118.72 14.8541 116.745 18.1269C113.96 22.733 110.54 26.946 107.212 31.1655C104.433 34.684 101.777 38.2975 98.8314 41.6816C95.9386 45.0003 92.7543 47.8373 90.484 51.6605C90.2252 52.0962 90.9099 52.4861 91.1687 52.0503L91.1622 52.0503Z" fill="white"/>
</svg>
